<svg width="7" height="14" viewBox="0 0 7 14" fill="none" xmlns="http://www.w3.org/2000/svg">
<path d="M3.00013 0.887451C3.1918 0.887451 3.51263 0.949951 3.50846 1.09578C4.05013 1.00828 4.1043 1.22912 4.07096 1.42912C4.02096 1.34995 3.95846 1.30412 3.90846 1.29995C3.83763 1.28745 3.76263 1.31245 3.68346 1.35828C3.60879 1.40513 3.54141 1.46269 3.48346 1.52912C3.67513 1.57495 3.82513 1.54578 3.97513 1.52078C4.05989 1.50272 4.14047 1.46879 4.21263 1.42078C4.27513 1.37912 4.29596 1.33745 4.3918 1.24162C4.5043 1.12495 4.62513 1.15828 4.58763 1.33745C4.50013 1.50412 4.3543 1.57912 4.17096 1.61245C4.08346 1.62495 3.95013 1.65412 3.80013 1.65412C3.65013 1.65412 3.48346 1.63328 3.3918 1.65412C3.44596 1.68745 3.50846 1.74995 3.63346 1.77078C3.75846 1.79578 3.94596 1.69578 4.06263 1.67078C4.05013 1.76662 3.92513 1.85828 3.68346 1.90828C3.28346 1.99162 2.9543 2.05828 2.73346 2.17912C2.55883 2.27649 2.40462 2.40665 2.2793 2.56245C2.08346 2.79162 2.07096 2.97078 2.06263 3.01245C2.02096 3.37912 2.15013 3.58745 2.3918 3.65412C2.50846 3.68328 2.72513 3.62495 2.80013 3.53328C2.88346 3.44162 2.9543 3.28328 2.93346 3.03328C2.91263 2.94162 2.8043 2.68745 2.89596 2.63745C3.33044 2.39873 3.78 2.18856 4.2418 2.00828C4.34596 1.96662 4.4293 2.10828 4.46263 2.16662C4.77029 2.12373 5.06454 2.01285 5.324 1.84204C5.58347 1.67123 5.80162 1.44477 5.96263 1.17912C6.13763 0.862451 6.43346 1.17912 6.38346 1.48328C6.3043 1.81662 6.05013 2.05828 5.7418 2.23328C5.4293 2.40412 5.03346 2.57495 4.63763 2.56662C4.42096 2.60828 4.42513 2.88328 4.6793 2.93745C5.18346 2.93745 5.58763 2.92912 5.9668 2.56245C6.2543 2.29995 6.41263 2.61245 6.33346 2.78745C6.1918 3.33328 5.41263 3.48745 4.62513 3.31245C4.3168 3.26245 4.50013 3.58745 4.58346 3.59162C4.9168 3.82912 5.5043 4.05828 6.02513 3.59162C6.26263 3.40828 6.42513 3.55828 6.33346 3.82078C6.1043 4.50828 5.22096 4.36245 4.6168 4.02912C4.46263 3.94162 4.32096 4.14162 4.50846 4.29578C5.26263 4.82078 5.63763 4.82912 5.9793 4.62912C6.4043 4.45828 6.43763 4.92912 6.18763 5.08745C5.90846 5.25412 5.19596 5.12912 4.67096 4.79578C4.44596 4.62912 4.43763 4.89162 4.5793 4.99578C5.20013 5.53328 5.44596 5.67495 6.0918 5.58745C6.41263 5.56245 6.40846 5.95828 6.15846 6.11245C5.81263 6.32495 5.13763 5.97495 4.6168 5.53745C4.39596 5.42078 4.35846 5.61245 4.4668 5.84162C4.69745 6.16798 5.01101 6.42689 5.37513 6.59162C5.6668 6.70412 5.9418 6.68745 6.13763 6.62078C6.3793 6.53745 6.40846 6.78745 6.27513 7.01245C6.19596 7.14995 5.8668 7.19162 5.50846 7.06662C5.15013 6.94162 4.7668 6.64162 4.5043 6.29578C4.27513 6.09162 4.30013 6.36245 4.40846 6.55412C4.93346 7.38745 5.4168 7.69578 6.0543 7.64578C6.33346 7.59578 6.40013 7.81245 6.22096 8.02078C5.9043 8.27912 5.51263 8.27078 5.16263 8.01245C4.85846 7.72078 4.27096 7.07912 3.96263 6.73745C3.74596 6.56662 3.67513 6.73745 3.7418 7.08745C3.80013 7.28745 3.9418 7.50412 4.33763 7.65412C4.60846 7.80828 4.4043 8.02078 4.2043 8.02912C4.0918 8.02912 3.8668 7.89578 3.6918 7.70412C3.4668 7.44578 3.45013 7.27495 3.32513 6.87495C3.20846 6.68328 2.99596 6.77495 2.99596 6.97495C3.10013 7.37495 3.18346 7.44578 3.3918 7.60828C3.58763 7.79578 3.2543 7.85828 3.1418 7.77912C2.8168 7.56245 2.70013 7.27912 2.5918 7.02078C2.50846 6.83745 2.28346 6.92495 2.3918 7.22912C2.6418 7.95412 3.05846 8.23745 3.7793 8.38745C3.85013 8.39995 3.89596 8.44162 3.87096 8.52495L3.5793 8.81662C4.02513 8.94995 4.38763 9.02495 4.83763 9.14995L5.4543 8.74162C5.50846 8.60828 5.53763 8.39995 5.86263 8.54578C6.0793 8.44578 6.18346 8.48328 6.3043 8.58745C6.1293 8.58745 6.0543 8.63745 5.98346 8.71662C5.8918 8.95412 5.68346 8.97912 5.47096 8.91245C5.33346 9.02495 5.26263 9.11662 5.12096 9.23328L5.8168 9.21245C6.0668 8.94995 6.25846 8.96245 6.43346 9.17078C6.57096 9.19162 6.62513 9.19162 6.7168 9.35412C6.57513 9.29578 6.48346 9.27912 6.42096 9.34162C6.15846 9.49578 5.98763 9.46245 5.85846 9.34162L5.1293 9.38745C5.22096 9.47078 5.34596 9.51245 5.4418 9.58745C5.8168 9.47912 6.0168 9.62912 6.08346 9.93328C6.13613 10.0552 6.15345 10.1895 6.13346 10.3208C6.10013 10.1958 6.03763 10.0916 5.9293 10.0291C5.59596 10.1125 5.47096 9.97495 5.45013 9.77495C5.28346 9.64162 5.0418 9.61245 4.8793 9.47912C4.68763 9.53745 4.59596 9.57495 4.4043 9.63745C4.33763 9.84578 4.18346 9.92495 3.93346 9.87078C3.6418 9.87912 3.6918 10.0041 3.6668 10.1C3.58346 9.96245 3.58763 9.82495 3.77096 9.69995C3.83763 9.52078 3.98763 9.43745 4.1793 9.54162C4.36263 9.49162 4.40846 9.41662 4.5918 9.36245C4.13346 9.21662 3.80846 9.18328 3.35013 9.03745L3.0293 9.32078C2.9668 9.35828 2.90846 9.36662 2.87096 9.32078C2.58346 8.90412 2.4543 8.54162 2.1918 8.26662C2.08763 8.14995 1.95846 7.99995 1.8168 7.96245C1.74596 7.94162 1.65846 7.95412 1.60013 8.01662C1.54596 8.07495 1.50013 8.18745 1.5168 8.35828C1.54596 8.59578 1.6043 8.67495 1.67096 8.81662C1.7418 8.96245 1.82096 9.04995 1.90846 9.16245C2.07513 9.38328 2.30013 9.51245 2.43346 9.59995C2.70013 9.77078 2.80846 9.69578 3.0168 9.68328C3.28346 9.71245 3.35013 9.84162 3.13346 10.0208C2.93346 10.1291 2.75013 10.1416 2.60013 10.1125C2.47513 10.0875 2.32513 9.92495 2.2168 9.83745C2.10013 9.69995 1.90013 9.86245 2.03763 10.025C2.28346 10.3166 2.52513 10.5083 2.8293 10.5041C3.15013 10.5458 3.08763 10.725 2.8793 10.8125C2.49596 10.9666 2.1543 10.675 1.9793 10.4791C1.84596 10.3333 1.75013 10.3291 1.77096 10.5583C1.90846 10.9708 2.08763 11.1291 2.38763 11.15C2.6293 11.125 2.63346 11.3166 2.4543 11.4416C2.0543 11.7166 1.76263 11.2416 1.62513 10.9583C1.5293 10.7 1.3793 10.8208 1.36263 11.0333C1.36263 11.3208 1.48763 11.55 1.83346 11.8416C1.57096 12.2625 1.26263 12.6916 1.00013 13.1125L0.20013 4.19578L1.00013 2.79162C1.08346 2.71662 1.3668 2.38328 1.43763 2.33328C1.4668 2.30828 1.4793 2.29162 1.4418 2.27495C1.4043 2.25828 1.3168 2.24162 1.2543 2.23328C1.42096 2.06245 1.57096 2.00828 1.8918 1.91662C1.81263 1.88328 1.73763 1.89995 1.5043 1.89162C1.64747 1.69925 1.84263 1.55179 2.0668 1.46662C1.8918 1.34162 1.85846 1.33328 1.68346 1.18745C1.95949 1.16613 2.23213 1.113 2.49596 1.02912C2.65353 0.954242 2.82254 0.906354 2.99596 0.887451H3.00013ZM2.9668 1.23745C2.80846 1.23745 2.71263 1.29162 2.71263 1.35828C2.71263 1.42495 2.80846 1.47912 2.9668 1.47912C3.12513 1.47912 3.22513 1.41662 3.22513 1.35412C3.22513 1.28745 3.12513 1.23745 2.9668 1.23745Z" fill="#000001"/>
</svg>
