<svg width="28" height="20" viewBox="0 0 28 20" fill="none" xmlns="http://www.w3.org/2000/svg">
<g clip-path="url(#clip0_269_1111)">
<path d="M0.666748 0H27.3334V20H0.666748V0Z" fill="#FF0000"/>
<path d="M12.0001 3.88745C11.8084 3.88745 11.4876 3.94995 11.4918 4.09578C10.9501 4.00828 10.8959 4.22912 10.9293 4.42912C10.9793 4.34995 11.0418 4.30412 11.0918 4.29995C11.1626 4.28745 11.2376 4.31245 11.3168 4.35828C11.3915 4.40513 11.4588 4.46269 11.5168 4.52912C11.3251 4.57495 11.1751 4.54578 11.0251 4.52078C10.9404 4.50272 10.8598 4.46879 10.7876 4.42078C10.7251 4.37912 10.7043 4.33745 10.6084 4.24162C10.4959 4.12495 10.3751 4.15828 10.4126 4.33745C10.5001 4.50412 10.6459 4.57912 10.8293 4.61245C10.9168 4.62495 11.0501 4.65412 11.2001 4.65412C11.3501 4.65412 11.5168 4.63328 11.6084 4.65412C11.5543 4.68745 11.4918 4.74995 11.3668 4.77078C11.2418 4.79578 11.0543 4.69578 10.9376 4.67078C10.9501 4.76662 11.0751 4.85828 11.3168 4.90828C11.7168 4.99162 12.0459 5.05828 12.2668 5.17912C12.4414 5.27649 12.5956 5.40665 12.7209 5.56245C12.9168 5.79162 12.9293 5.97078 12.9376 6.01245C12.9793 6.37912 12.8501 6.58745 12.6084 6.65412C12.4918 6.68328 12.2751 6.62495 12.2001 6.53328C12.1168 6.44162 12.0459 6.28328 12.0668 6.03328C12.0876 5.94162 12.1959 5.68745 12.1043 5.63745C11.6698 5.39873 11.2202 5.18856 10.7584 5.00828C10.6543 4.96662 10.5709 5.10828 10.5376 5.16662C10.2299 5.12373 9.9357 5.01285 9.67624 4.84204C9.41678 4.67123 9.19862 4.44477 9.03761 4.17912C8.86261 3.86245 8.56678 4.17912 8.61678 4.48328C8.69595 4.81662 8.95011 5.05828 9.25845 5.23328C9.57095 5.40412 9.96678 5.57495 10.3626 5.56662C10.5793 5.60828 10.5751 5.88328 10.3209 5.93745C9.81678 5.93745 9.41261 5.92912 9.03345 5.56245C8.74595 5.29995 8.58761 5.61245 8.66678 5.78745C8.80845 6.33328 9.58761 6.48745 10.3751 6.31245C10.6834 6.26245 10.5001 6.58745 10.4168 6.59162C10.0834 6.82912 9.49595 7.05828 8.97511 6.59162C8.73761 6.40828 8.57511 6.55828 8.66678 6.82078C8.89595 7.50828 9.77928 7.36245 10.3834 7.02912C10.5376 6.94162 10.6793 7.14162 10.4918 7.29578C9.73761 7.82078 9.36261 7.82912 9.02095 7.62912C8.59595 7.45828 8.56261 7.92912 8.81261 8.08745C9.09178 8.25412 9.80428 8.12912 10.3293 7.79578C10.5543 7.62912 10.5626 7.89162 10.4209 7.99578C9.80011 8.53328 9.55428 8.67495 8.90845 8.58745C8.58761 8.56245 8.59178 8.95828 8.84178 9.11245C9.18761 9.32495 9.86261 8.97495 10.3834 8.53745C10.6043 8.42078 10.6418 8.61245 10.5334 8.84162C10.3028 9.16798 9.98923 9.42689 9.62511 9.59162C9.33345 9.70412 9.05845 9.68745 8.86261 9.62078C8.62095 9.53745 8.59178 9.78745 8.72511 10.0125C8.80428 10.15 9.13345 10.1916 9.49178 10.0666C9.85011 9.94162 10.2334 9.64162 10.4959 9.29578C10.7251 9.09162 10.7001 9.36245 10.5918 9.55412C10.0668 10.3875 9.58345 10.6958 8.94595 10.6458C8.66678 10.5958 8.60011 10.8125 8.77928 11.0208C9.09595 11.2791 9.48761 11.2708 9.83761 11.0125C10.1418 10.7208 10.7293 10.0791 11.0376 9.73745C11.2543 9.56662 11.3251 9.73745 11.2584 10.0875C11.2001 10.2875 11.0584 10.5041 10.6626 10.6541C10.3918 10.8083 10.5959 11.0208 10.7959 11.0291C10.9084 11.0291 11.1334 10.8958 11.3084 10.7041C11.5334 10.4458 11.5501 10.275 11.6751 9.87495C11.7918 9.68328 12.0043 9.77495 12.0043 9.97495C11.9001 10.375 11.8168 10.4458 11.6084 10.6083C11.4126 10.7958 11.7459 10.8583 11.8584 10.7791C12.1834 10.5625 12.3001 10.2791 12.4084 10.0208C12.4918 9.83745 12.7168 9.92495 12.6084 10.2291C12.3584 10.9541 11.9418 11.2375 11.2209 11.3875C11.1501 11.4 11.1043 11.4416 11.1293 11.525L11.4209 11.8166C10.9751 11.95 10.6126 12.025 10.1626 12.15L9.54595 11.7416C9.49178 11.6083 9.46261 11.4 9.13761 11.5458C8.92095 11.4458 8.81678 11.4833 8.69595 11.5875C8.87095 11.5875 8.94595 11.6375 9.01678 11.7166C9.10845 11.9541 9.31678 11.9791 9.52928 11.9125C9.66678 12.025 9.73761 12.1166 9.87928 12.2333L9.18345 12.2125C8.93345 11.95 8.74178 11.9625 8.56678 12.1708C8.42928 12.1916 8.37511 12.1916 8.28345 12.3541C8.42511 12.2958 8.51678 12.2791 8.57928 12.3416C8.84178 12.4958 9.01261 12.4625 9.14178 12.3416L9.87095 12.3875C9.77928 12.4708 9.65428 12.5125 9.55845 12.5875C9.18345 12.4791 8.98345 12.6291 8.91678 12.9333C8.86412 13.0552 8.84679 13.1895 8.86678 13.3208C8.90011 13.1958 8.96261 13.0916 9.07095 13.0291C9.40428 13.1125 9.52928 12.975 9.55011 12.775C9.71678 12.6416 9.95845 12.6125 10.1209 12.4791C10.3126 12.5375 10.4043 12.575 10.5959 12.6375C10.6626 12.8458 10.8168 12.925 11.0668 12.8708C11.3584 12.8791 11.3084 13.0041 11.3334 13.1C11.4168 12.9625 11.4126 12.825 11.2293 12.7C11.1626 12.5208 11.0126 12.4375 10.8209 12.5416C10.6376 12.4916 10.5918 12.4166 10.4084 12.3625C10.8668 12.2166 11.1918 12.1833 11.6501 12.0375L11.9709 12.3208C12.0334 12.3583 12.0918 12.3666 12.1293 12.3208C12.4168 11.9041 12.5459 11.5416 12.8084 11.2666C12.9126 11.15 13.0418 11 13.1834 10.9625C13.2543 10.9416 13.3418 10.9541 13.4001 11.0166C13.4543 11.075 13.5001 11.1875 13.4834 11.3583C13.4543 11.5958 13.3959 11.675 13.3293 11.8166C13.2584 11.9625 13.1793 12.05 13.0918 12.1625C12.9251 12.3833 12.7001 12.5125 12.5668 12.6C12.3001 12.7708 12.1918 12.6958 11.9834 12.6833C11.7168 12.7125 11.6501 12.8416 11.8668 13.0208C12.0668 13.1291 12.2501 13.1416 12.4001 13.1125C12.5251 13.0875 12.6751 12.925 12.7834 12.8375C12.9001 12.7 13.1001 12.8625 12.9626 13.025C12.7168 13.3166 12.4751 13.5083 12.1709 13.5041C11.8501 13.5458 11.9126 13.725 12.1209 13.8125C12.5043 13.9666 12.8459 13.675 13.0209 13.4791C13.1543 13.3333 13.2501 13.3291 13.2293 13.5583C13.0918 13.9708 12.9126 14.1291 12.6126 14.15C12.3709 14.125 12.3668 14.3166 12.5459 14.4416C12.9459 14.7166 13.2376 14.2416 13.3751 13.9583C13.4709 13.7 13.6209 13.8208 13.6376 14.0333C13.6376 14.3208 13.5126 14.55 13.1668 14.8416C13.4293 15.2625 13.7376 15.6916 14.0001 16.1125L14.8001 7.19578L14.0001 5.79162C13.9168 5.71662 13.6334 5.38328 13.5626 5.33328C13.5334 5.30828 13.5209 5.29162 13.5584 5.27495C13.5959 5.25828 13.6834 5.24162 13.7459 5.23328C13.5793 5.06245 13.4293 5.00828 13.1084 4.91662C13.1876 4.88328 13.2626 4.89995 13.4959 4.89162C13.3528 4.69925 13.1576 4.55179 12.9334 4.46662C13.1084 4.34162 13.1418 4.33328 13.3168 4.18745C13.0408 4.16613 12.7681 4.113 12.5043 4.02912C12.3467 3.95424 12.1777 3.90635 12.0043 3.88745H12.0001ZM12.0334 4.23745C12.1918 4.23745 12.2876 4.29162 12.2876 4.35828C12.2876 4.42495 12.1918 4.47912 12.0334 4.47912C11.8751 4.47912 11.7751 4.41662 11.7751 4.35412C11.7751 4.28745 11.8751 4.23745 12.0334 4.23745Z" fill="#000001"/>
<path d="M16.0001 3.88745C16.1918 3.88745 16.5126 3.94995 16.5085 4.09578C17.0501 4.00828 17.1043 4.22912 17.071 4.42912C17.021 4.34995 16.9585 4.30412 16.9085 4.29995C16.8376 4.28745 16.7626 4.31245 16.6835 4.35828C16.6088 4.40513 16.5414 4.46269 16.4835 4.52912C16.6751 4.57495 16.8251 4.54578 16.9751 4.52078C17.0599 4.50272 17.1405 4.46879 17.2126 4.42078C17.2751 4.37912 17.296 4.33745 17.3918 4.24162C17.5043 4.12495 17.6251 4.15828 17.5876 4.33745C17.5001 4.50412 17.3543 4.57912 17.171 4.61245C17.0835 4.62495 16.9501 4.65412 16.8001 4.65412C16.6501 4.65412 16.4835 4.63328 16.3918 4.65412C16.446 4.68745 16.5085 4.74995 16.6335 4.77078C16.7585 4.79578 16.946 4.69578 17.0626 4.67078C17.0501 4.76662 16.9251 4.85828 16.6835 4.90828C16.2835 4.99162 15.9543 5.05828 15.7335 5.17912C15.5588 5.27649 15.4046 5.40665 15.2793 5.56245C15.0835 5.79162 15.071 5.97078 15.0626 6.01245C15.021 6.37912 15.1501 6.58745 15.3918 6.65412C15.5085 6.68328 15.7251 6.62495 15.8001 6.53328C15.8835 6.44162 15.9543 6.28328 15.9335 6.03328C15.9126 5.94162 15.8043 5.68745 15.896 5.63745C16.3304 5.39873 16.78 5.18856 17.2418 5.00828C17.346 4.96662 17.4293 5.10828 17.4626 5.16662C17.7703 5.12373 18.0645 5.01285 18.324 4.84204C18.5835 4.67123 18.8016 4.44477 18.9626 4.17912C19.1376 3.86245 19.4335 4.17912 19.3835 4.48328C19.3043 4.81662 19.0501 5.05828 18.7418 5.23328C18.4293 5.40412 18.0335 5.57495 17.6376 5.56662C17.421 5.60828 17.4251 5.88328 17.6793 5.93745C18.1835 5.93745 18.5876 5.92912 18.9668 5.56245C19.2543 5.29995 19.4126 5.61245 19.3335 5.78745C19.1918 6.33328 18.4126 6.48745 17.6251 6.31245C17.3168 6.26245 17.5001 6.58745 17.5835 6.59162C17.9168 6.82912 18.5043 7.05828 19.0251 6.59162C19.2626 6.40828 19.4251 6.55828 19.3335 6.82078C19.1043 7.50828 18.221 7.36245 17.6168 7.02912C17.4626 6.94162 17.321 7.14162 17.5085 7.29578C18.2626 7.82078 18.6376 7.82912 18.9793 7.62912C19.4043 7.45828 19.4376 7.92912 19.1876 8.08745C18.9085 8.25412 18.196 8.12912 17.671 7.79578C17.446 7.62912 17.4376 7.89162 17.5793 7.99578C18.2001 8.53328 18.446 8.67495 19.0918 8.58745C19.4126 8.56245 19.4085 8.95828 19.1585 9.11245C18.8126 9.32495 18.1376 8.97495 17.6168 8.53745C17.396 8.42078 17.3585 8.61245 17.4668 8.84162C17.6975 9.16798 18.011 9.42689 18.3751 9.59162C18.6668 9.70412 18.9418 9.68745 19.1376 9.62078C19.3793 9.53745 19.4085 9.78745 19.2751 10.0125C19.196 10.15 18.8668 10.1916 18.5085 10.0666C18.1501 9.94162 17.7668 9.64162 17.5043 9.29578C17.2751 9.09162 17.3001 9.36245 17.4085 9.55412C17.9335 10.3875 18.4168 10.6958 19.0543 10.6458C19.3335 10.5958 19.4001 10.8125 19.221 11.0208C18.9043 11.2791 18.5126 11.2708 18.1626 11.0125C17.8585 10.7208 17.271 10.0791 16.9626 9.73745C16.746 9.56662 16.6751 9.73745 16.7418 10.0875C16.8001 10.2875 16.9418 10.5041 17.3376 10.6541C17.6085 10.8083 17.4043 11.0208 17.2043 11.0291C17.0918 11.0291 16.8668 10.8958 16.6918 10.7041C16.4668 10.4458 16.4501 10.275 16.3251 9.87495C16.2085 9.68328 15.996 9.77495 15.996 9.97495C16.1001 10.375 16.1835 10.4458 16.3918 10.6083C16.5876 10.7958 16.2543 10.8583 16.1418 10.7791C15.8168 10.5625 15.7001 10.2791 15.5918 10.0208C15.5085 9.83745 15.2835 9.92495 15.3918 10.2291C15.6418 10.9541 16.0585 11.2375 16.7793 11.3875C16.8501 11.4 16.896 11.4416 16.871 11.525L16.5793 11.8166C17.0251 11.95 17.3876 12.025 17.8376 12.15L18.4543 11.7416C18.5085 11.6083 18.5376 11.4 18.8626 11.5458C19.0793 11.4458 19.1835 11.4833 19.3043 11.5875C19.1293 11.5875 19.0543 11.6375 18.9835 11.7166C18.8918 11.9541 18.6835 11.9791 18.471 11.9125C18.3335 12.025 18.2626 12.1166 18.121 12.2333L18.8168 12.2125C19.0668 11.95 19.2585 11.9625 19.4335 12.1708C19.571 12.1916 19.6251 12.1916 19.7168 12.3541C19.5751 12.2958 19.4835 12.2791 19.421 12.3416C19.1585 12.4958 18.9876 12.4625 18.8585 12.3416L18.1293 12.3875C18.221 12.4708 18.346 12.5125 18.4418 12.5875C18.8168 12.4791 19.0168 12.6291 19.0835 12.9333C19.1361 13.0552 19.1535 13.1895 19.1335 13.3208C19.1001 13.1958 19.0376 13.0916 18.9293 13.0291C18.596 13.1125 18.471 12.975 18.4501 12.775C18.2835 12.6416 18.0418 12.6125 17.8793 12.4791C17.6876 12.5375 17.596 12.575 17.4043 12.6375C17.3376 12.8458 17.1835 12.925 16.9335 12.8708C16.6418 12.8791 16.6918 13.0041 16.6668 13.1C16.5835 12.9625 16.5876 12.825 16.771 12.7C16.8376 12.5208 16.9876 12.4375 17.1793 12.5416C17.3626 12.4916 17.4085 12.4166 17.5918 12.3625C17.1335 12.2166 16.8085 12.1833 16.3501 12.0375L16.0293 12.3208C15.9668 12.3583 15.9085 12.3666 15.871 12.3208C15.5835 11.9041 15.4543 11.5416 15.1918 11.2666C15.0876 11.15 14.9585 11 14.8168 10.9625C14.746 10.9416 14.6585 10.9541 14.6001 11.0166C14.546 11.075 14.5001 11.1875 14.5168 11.3583C14.546 11.5958 14.6043 11.675 14.671 11.8166C14.7418 11.9625 14.821 12.05 14.9085 12.1625C15.0751 12.3833 15.3001 12.5125 15.4335 12.6C15.7001 12.7708 15.8085 12.6958 16.0168 12.6833C16.2835 12.7125 16.3501 12.8416 16.1335 13.0208C15.9335 13.1291 15.7501 13.1416 15.6001 13.1125C15.4751 13.0875 15.3251 12.925 15.2168 12.8375C15.1001 12.7 14.9001 12.8625 15.0376 13.025C15.2835 13.3166 15.5251 13.5083 15.8293 13.5041C16.1501 13.5458 16.0876 13.725 15.8793 13.8125C15.496 13.9666 15.1543 13.675 14.9793 13.4791C14.846 13.3333 14.7501 13.3291 14.771 13.5583C14.9085 13.9708 15.0876 14.1291 15.3876 14.15C15.6293 14.125 15.6335 14.3166 15.4543 14.4416C15.0543 14.7166 14.7626 14.2416 14.6251 13.9583C14.5293 13.7 14.3793 13.8208 14.3626 14.0333C14.3626 14.3208 14.4876 14.55 14.8335 14.8416C14.571 15.2625 14.2626 15.6916 14.0001 16.1125L13.2001 7.19578L14.0001 5.79162C14.0835 5.71662 14.3668 5.38328 14.4376 5.33328C14.4668 5.30828 14.4793 5.29162 14.4418 5.27495C14.4043 5.25828 14.3168 5.24162 14.2543 5.23328C14.421 5.06245 14.571 5.00828 14.8918 4.91662C14.8126 4.88328 14.7376 4.89995 14.5043 4.89162C14.6475 4.69925 14.8426 4.55179 15.0668 4.46662C14.8918 4.34162 14.8585 4.33328 14.6835 4.18745C14.9595 4.16613 15.2321 4.113 15.496 4.02912C15.6535 3.95424 15.8225 3.90635 15.996 3.88745H16.0001ZM15.9668 4.23745C15.8085 4.23745 15.7126 4.29162 15.7126 4.35828C15.7126 4.42495 15.8085 4.47912 15.9668 4.47912C16.1251 4.47912 16.2251 4.41662 16.2251 4.35412C16.2251 4.28745 16.1251 4.23745 15.9668 4.23745Z" fill="#000001"/>
</g>
<defs>
<clipPath id="clip0_269_1111">
<rect x="0.666748" width="26.6667" height="20" rx="4" fill="white"/>
</clipPath>
</defs>
</svg>
