<svg width="18" height="17" viewBox="0 0 18 17" fill="none" xmlns="http://www.w3.org/2000/svg">
<path d="M5.59282 7.74012C6.66579 6.66716 8.53708 6.66716 9.61005 7.74012L10.2796 8.40966L11.6187 7.07058L10.9491 6.40105C10.0561 5.50707 8.86664 5.01367 7.60143 5.01367C6.33623 5.01367 5.14678 5.50707 4.25374 6.40105L2.24418 8.40966C0.3994 10.2554 0.3994 13.2603 2.24418 15.106C3.16752 16.0293 4.3797 16.4905 5.59187 16.4905C6.805 16.4905 8.01812 16.0293 8.94051 15.106L9.61005 14.4365L8.27097 13.0974L7.60143 13.7669C6.49343 14.8721 4.69126 14.874 3.58326 13.7669C2.4762 12.6589 2.4762 10.8567 3.58326 9.74874L5.59282 7.74012Z" fill="#00203F"/>
<path d="M8.93975 1.71339L8.27021 2.38293L9.60929 3.722L10.2788 3.05246C11.3859 1.9473 13.188 1.9454 14.297 3.05246C15.4041 4.16047 15.4041 5.96263 14.297 7.07064L12.2874 9.07925C11.2145 10.1522 9.34318 10.1522 8.27021 9.07925L7.60067 8.40972L6.2616 9.74879L6.93113 10.4183C7.82417 11.3123 9.01362 11.8057 10.2788 11.8057C11.544 11.8057 12.7335 11.3123 13.6265 10.4183L15.6361 8.40972C17.4809 6.56399 17.4809 3.55911 15.6361 1.71339C13.7894 -0.133289 10.7845 -0.132342 8.93975 1.71339Z" fill="#00203F"/>
</svg>
