<svg width="18" height="18" viewBox="0 0 18 18" fill="none" xmlns="http://www.w3.org/2000/svg">
<rect x="0.75" y="0.75" width="16.5" height="16.5" rx="3.25" stroke="#00203F" stroke-width="1.5"/>
<path d="M14.9988 4.99501C14.9858 4.71009 14.8559 4.4523 14.6612 4.26235C14.4664 4.0724 14.2067 3.97742 13.9341 4.00456C13.6614 4.01813 13.4147 4.15381 13.2459 4.35732L8.05227 10.4628L5.67617 8.21057C5.48141 8.02062 5.22173 7.92565 4.94906 7.93922C4.67639 7.95279 4.4297 8.0749 4.2609 8.27841C4.07913 8.48193 3.98824 8.75328 4.00122 9.03821C4.0142 9.32313 4.13106 9.58092 4.32582 9.7573L7.455 12.7286C7.63678 12.905 7.88347 13 8.13017 13H8.18211H8.19509C8.45477 12.9864 8.70147 12.8643 8.89624 12.6472L14.7651 5.74124C14.9209 5.53772 15.0118 5.26636 14.9988 4.99501Z" fill="#00203F"/>
</svg>
