<svg width="24" height="30" viewBox="0 0 24 30" fill="none" xmlns="http://www.w3.org/2000/svg">
<path d="M23.8545 9.879C23.781 9.72 23.6895 9.5685 23.5605 9.4395L14.5605 0.4395C14.4315 0.3105 14.28 0.219 14.121 0.1455C14.076 0.1245 14.028 0.1125 13.98 0.0959998C13.854 0.0539998 13.725 0.027 13.5915 0.0195C13.56 0.0165 13.5315 0 13.5 0H3C1.3455 0 0 1.3455 0 3V27C0 28.6545 1.3455 30 3 30H21C22.6545 30 24 28.6545 24 27V10.5C24 10.4685 23.9835 10.44 23.9805 10.407C23.973 10.2735 23.9475 10.1445 23.904 10.0185C23.889 9.9705 23.8755 9.924 23.8545 9.879ZM18.879 9H15V5.121L18.879 9ZM3 27V3H12V10.5C12 11.3295 12.6705 12 13.5 12H21L21.003 27H3Z" fill="#00203F"/>
<path d="M6 15H18V18H6V15ZM6 21H18V24H6V21ZM6 9H9V12H6V9Z" fill="#00203F"/>
</svg>
