<svg width="25" height="31" viewBox="0 0 25 31" fill="none" xmlns="http://www.w3.org/2000/svg">
<path d="M24.1875 10.5301C24.114 10.3711 24.0225 10.2196 23.8935 10.0906L14.8935 1.09062C14.7645 0.961623 14.613 0.870123 14.454 0.796623C14.409 0.775623 14.361 0.763623 14.313 0.747123C14.187 0.705123 14.058 0.678123 13.9245 0.670623C13.893 0.667623 13.8645 0.651123 13.833 0.651123H3.33301C1.67851 0.651123 0.333008 1.99662 0.333008 3.65112V27.6511C0.333008 29.3056 1.67851 30.6511 3.33301 30.6511H21.333C22.9875 30.6511 24.333 29.3056 24.333 27.6511V11.1511C24.333 11.1196 24.3165 11.0911 24.3135 11.0581C24.306 10.9246 24.2805 10.7956 24.237 10.6696C24.222 10.6216 24.2085 10.5751 24.1875 10.5301ZM19.212 9.65112H15.333V5.77212L19.212 9.65112ZM3.33301 27.6511V3.65112H12.333V11.1511C12.333 11.9806 13.0035 12.6511 13.833 12.6511H21.333L21.336 27.6511H3.33301Z" fill="#00203F"/>
</svg>
