<svg width="33" height="26" viewBox="0 0 33 26" fill="none" xmlns="http://www.w3.org/2000/svg">
<path d="M31.6026 0.552064H14.1812C12.8587 0.548174 11.5907 1.07456 10.6599 2.01195L10.1283 2.54354H1.7306C1.18089 2.54354 0.734863 2.98957 0.734863 3.53928V16.4839C0.734863 17.0336 1.18089 17.4796 1.7306 17.4796H5.67207L12.7627 24.5716C13.927 25.7385 15.8173 25.7398 16.9843 24.5755C17.3487 24.2112 17.6131 23.7587 17.7519 23.2621C19.2999 23.607 20.848 22.6787 21.2718 21.1501C22.8199 21.4949 24.3679 20.5666 24.7917 19.038C26.4008 19.3945 27.9955 18.3806 28.3522 16.7717C28.4455 16.349 28.4468 15.9121 28.3548 15.4894L31.6026 15.4881C32.1523 15.4881 32.5983 15.0421 32.5983 14.4923V1.54774C32.5983 0.998026 32.1523 0.552064 31.6026 0.552064ZM26.1417 16.8261C25.7527 17.2138 25.1226 17.2138 24.7336 16.8261L21.2137 13.3061C20.8247 12.9172 20.1946 12.9172 19.8056 13.3061C19.4167 13.6951 19.4167 14.3252 19.8056 14.7142L22.6217 17.5303C23.0107 17.9192 23.012 18.5493 22.623 18.9383C22.2341 19.3273 21.604 19.3286 21.2137 18.9396L18.3963 16.1222C18.0112 15.7307 17.3798 15.7255 16.9883 16.1106C16.5967 16.4956 16.5915 17.127 16.9766 17.5186C16.9805 17.5225 16.9844 17.5264 16.9883 17.5303L19.1003 19.6423C19.4893 20.0313 19.4893 20.6614 19.1003 21.0504C18.7114 21.4393 18.0813 21.4393 17.6923 21.0504L15.5802 18.9396C15.1951 18.5481 14.5637 18.5429 14.1722 18.9279C13.7806 19.313 13.7755 19.9444 14.1605 20.336C14.1644 20.3399 14.1683 20.3438 14.1722 20.3477L15.5802 21.7557C15.9718 22.1408 15.977 22.7722 15.5919 23.1637C15.2068 23.5553 14.5754 23.5605 14.1839 23.1754C14.18 23.1715 14.1761 23.1676 14.1722 23.1637L6.78846 15.7813C6.60176 15.5946 6.34894 15.4896 6.08444 15.4896H2.72648V4.53648H8.13699L5.59059 7.08159C4.42371 8.24846 4.42371 10.1401 5.59059 11.3068C6.75746 12.4737 8.6491 12.4737 9.81584 11.3068L13.599 7.52369H16.8455C16.8986 7.52369 16.9544 7.52369 17.0114 7.5211C17.8036 7.5211 18.5647 7.83616 19.1235 8.39884L26.1405 15.4195C26.5294 15.8084 26.5293 16.4371 26.1417 16.8261ZM30.6069 13.4967H27.0362L24.6869 11.1474C27.0453 10.2851 28.6141 8.04214 28.6154 5.53072C28.6154 4.98101 28.1694 4.53498 27.6196 4.53498C27.0699 4.53498 26.6239 4.98101 26.6239 5.53072C26.6252 7.57926 25.0719 9.29329 23.0353 9.49542L20.5291 6.99051C19.5981 6.05312 18.3301 5.52671 17.0091 5.53062H13.1855C12.921 5.53062 12.6682 5.63564 12.4815 5.82235L8.40656 9.89724C8.02148 10.2888 7.39008 10.294 6.99852 9.90891C6.60697 9.52382 6.60179 8.89243 6.98685 8.50087L12.0681 3.41961C12.6269 2.85692 13.388 2.54187 14.1802 2.54446L30.6072 2.54316L30.6069 13.4967Z" fill="#00203F"/>
</svg>
