<svg width="25" height="24" viewBox="0 0 25 24" fill="none" xmlns="http://www.w3.org/2000/svg">
<path d="M22.8475 7.90309C22.8352 7.06376 22.6797 6.23107 22.3821 5.44606C21.8612 4.10556 20.8006 3.04557 19.4578 2.52667C18.6815 2.23506 17.8608 2.07872 17.03 2.06098C15.9616 2.01331 15.6229 2 12.9108 2C10.1986 2 9.851 2 8.79036 2.06098C7.96073 2.07872 7.13999 2.23506 6.36366 2.52667C5.02093 3.04557 3.95918 4.10556 3.43941 5.44606C3.14732 6.22109 2.98961 7.04047 2.97406 7.86872C2.9263 8.93647 2.91187 9.27464 2.91187 11.9823C2.91187 14.6899 2.91187 15.0358 2.97406 16.0958C2.99072 16.9252 3.14732 17.7434 3.43941 18.5207C3.96029 19.8601 5.02093 20.9201 6.36478 21.439C7.13776 21.7406 7.95851 21.9113 8.79148 21.9379C9.861 21.9856 10.1997 22 12.9119 22C15.624 22 15.9716 22 17.0323 21.9379C17.8619 21.9213 18.6826 21.7649 19.4601 21.4733C20.8028 20.9533 21.8634 19.8933 22.3843 18.5539C22.6764 17.7778 22.833 16.9595 22.8497 16.1291C22.8974 15.0624 22.9119 14.7243 22.9119 12.0155C22.9096 9.30791 22.9096 8.96419 22.8475 7.90309ZM12.9041 17.1026C10.0676 17.1026 7.76971 14.8085 7.76971 11.9767C7.76971 9.14492 10.0676 6.85087 12.9041 6.85087C15.7384 6.85087 18.0385 9.14492 18.0385 11.9767C18.0385 14.8085 15.7384 17.1026 12.9041 17.1026ZM18.2428 7.85653C17.5798 7.85653 17.0456 7.3221 17.0456 6.66127C17.0456 6.00044 17.5798 5.46602 18.2428 5.46602C18.9036 5.46602 19.439 6.00044 19.439 6.66127C19.439 7.3221 18.9036 7.85653 18.2428 7.85653Z" fill="white"/>
<path d="M12.9071 14.9826C14.5656 14.9826 15.9101 13.6381 15.9101 11.9796C15.9101 10.3211 14.5656 8.97656 12.9071 8.97656C11.2485 8.97656 9.90405 10.3211 9.90405 11.9796C9.90405 13.6381 11.2485 14.9826 12.9071 14.9826Z" fill="white"/>
</svg>
