<svg width="25" height="24" viewBox="0 0 25 24" fill="none" xmlns="http://www.w3.org/2000/svg">
<path d="M20.9119 3H4.91187C4.35887 3 3.91187 3.448 3.91187 4V20C3.91187 20.552 4.35887 21 4.91187 21H13.5269V14.04H11.1889V11.315H13.5269V9.315C13.5269 6.99 14.9469 5.723 17.0269 5.723C17.7259 5.721 18.4259 5.757 19.1219 5.83V8.25H17.6869C16.5589 8.25 16.3389 8.788 16.3389 9.575V11.31H19.0359L18.6859 14.035H16.3379V21H20.9119C21.4649 21 21.9119 20.552 21.9119 20V4C21.9119 3.448 21.4649 3 20.9119 3Z" fill="white"/>
</svg>
