<svg width="252" height="38" viewBox="0 0 252 38" fill="none" xmlns="http://www.w3.org/2000/svg">
<g filter="url(#filter0_dd_269_1015)">
<rect x="2.3335" y="3" width="32" height="32" rx="12" fill="#FFC800" shape-rendering="crispEdges"/>
<path d="M14.799 18.2931C15.932 17.1601 17.908 17.1601 19.041 18.2931L19.748 19.0001L21.162 17.5861L20.455 16.8791C19.512 15.9351 18.256 15.4141 16.92 15.4141C15.584 15.4141 14.328 15.9351 13.385 16.8791L11.263 19.0001C9.315 20.9491 9.315 24.1221 11.263 26.0711C12.238 27.0461 13.518 27.5331 14.798 27.5331C16.079 27.5331 17.36 27.0461 18.334 26.0711L19.041 25.3641L17.627 23.9501L16.92 24.6571C15.75 25.8241 13.847 25.8261 12.677 24.6571C11.508 23.4871 11.508 21.5841 12.677 20.4141L14.799 18.2931Z" fill="#00203F"/>
<path d="M18.3331 11.9289L17.6261 12.6359L19.0401 14.0499L19.7471 13.3429C20.9161 12.1759 22.8191 12.1739 23.9901 13.3429C25.1591 14.5129 25.1591 16.4159 23.9901 17.5859L21.8681 19.7069C20.7351 20.8399 18.7591 20.8399 17.6261 19.7069L16.9191 18.9999L15.5051 20.4139L16.2121 21.1209C17.1551 22.0649 18.4111 22.5859 19.7471 22.5859C21.0831 22.5859 22.3391 22.0649 23.2821 21.1209L25.4041 18.9999C27.3521 17.0509 27.3521 13.8779 25.4041 11.9289C23.4541 9.97892 20.2811 9.97992 18.3331 11.9289Z" fill="#00203F"/>
</g>
<path d="M43.6247 26V12.9091H48.5338C49.5395 12.9091 50.3832 13.0838 51.065 13.4332C51.7511 13.7827 52.2689 14.2727 52.6183 14.9034C52.972 15.5298 53.1488 16.2607 53.1488 17.0959C53.1488 17.9354 52.9699 18.6641 52.6119 19.282C52.2582 19.8956 51.7362 20.3707 51.0459 20.7074C50.3555 21.0398 49.5075 21.206 48.5018 21.206H45.0054V19.2372H48.1822C48.7703 19.2372 49.2518 19.1562 49.6268 18.9943C50.0018 18.8281 50.2788 18.5874 50.4578 18.272C50.641 17.9524 50.7326 17.5604 50.7326 17.0959C50.7326 16.6314 50.641 16.2351 50.4578 15.907C50.2745 15.5746 49.9954 15.3232 49.6204 15.1527C49.2454 14.978 48.7618 14.8906 48.1694 14.8906H45.9961V26H43.6247ZM50.3875 20.0682L53.6282 26H50.9819L47.7987 20.0682H50.3875ZM55.2294 26V16.1818H57.4731V17.8182H57.5753C57.7543 17.2514 58.0611 16.8146 58.4958 16.5078C58.9347 16.1967 59.4354 16.0412 59.9979 16.0412C60.1258 16.0412 60.2685 16.0476 60.4262 16.0604C60.5881 16.0689 60.7223 16.0838 60.8289 16.1051V18.2337C60.7309 18.1996 60.5753 18.1697 60.3623 18.1442C60.1535 18.1143 59.951 18.0994 59.755 18.0994C59.3331 18.0994 58.9539 18.1911 58.6172 18.3743C58.2848 18.5533 58.0228 18.8026 57.831 19.1222C57.6392 19.4418 57.5434 19.8104 57.5434 20.228V26H55.2294ZM62.3662 26V16.1818H64.6801V26H62.3662ZM63.5295 14.7884C63.163 14.7884 62.8477 14.6669 62.5835 14.424C62.3193 14.1768 62.1872 13.8807 62.1872 13.5355C62.1872 13.1861 62.3193 12.8899 62.5835 12.647C62.8477 12.3999 63.163 12.2763 63.5295 12.2763C63.9003 12.2763 64.2156 12.3999 64.4755 12.647C64.7397 12.8899 64.8718 13.1861 64.8718 13.5355C64.8718 13.8807 64.7397 14.1768 64.4755 14.424C64.2156 14.6669 63.9003 14.7884 63.5295 14.7884ZM74.8195 18.777L72.7101 19.0071C72.6504 18.794 72.546 18.5938 72.3969 18.4062C72.252 18.2188 72.056 18.0675 71.8088 17.9524C71.5617 17.8374 71.2591 17.7798 70.9011 17.7798C70.4196 17.7798 70.0148 17.8842 69.6867 18.093C69.3628 18.3018 69.203 18.5724 69.2073 18.9048C69.203 19.1903 69.3074 19.4226 69.5205 19.6016C69.7378 19.7805 70.0957 19.9276 70.5943 20.0426L72.269 20.4006C73.198 20.6009 73.8884 20.9183 74.3401 21.353C74.796 21.7876 75.0261 22.3565 75.0304 23.0597C75.0261 23.6776 74.845 24.223 74.4871 24.696C74.1334 25.1648 73.6412 25.5312 73.0105 25.7955C72.3798 26.0597 71.6554 26.1918 70.8372 26.1918C69.6355 26.1918 68.6682 25.9403 67.9352 25.4375C67.2023 24.9304 66.7655 24.2251 66.6249 23.3217L68.8813 23.1044C68.9835 23.5476 69.2009 23.8821 69.5332 24.108C69.8656 24.3338 70.2982 24.4467 70.8308 24.4467C71.3805 24.4467 71.8216 24.3338 72.154 24.108C72.4906 23.8821 72.659 23.603 72.659 23.2706C72.659 22.9893 72.5503 22.7571 72.333 22.5739C72.1199 22.3906 71.7875 22.25 71.3358 22.152L69.6611 21.8004C68.7193 21.6044 68.0226 21.2741 67.5709 20.8097C67.1192 20.3409 66.8955 19.7486 66.8997 19.0327C66.8955 18.4276 67.0595 17.9034 67.3919 17.4602C67.7286 17.0128 68.1952 16.6676 68.7918 16.4247C69.3926 16.1776 70.0851 16.054 70.8692 16.054C72.0198 16.054 72.9253 16.299 73.5858 16.7891C74.2506 17.2791 74.6618 17.9418 74.8195 18.777ZM79.2524 20.2472V26H76.9384V16.1818H79.1501V17.8501H79.2651C79.491 17.3004 79.8511 16.8636 80.3454 16.5398C80.844 16.2159 81.4597 16.054 82.1927 16.054C82.8703 16.054 83.4604 16.1989 83.9633 16.4886C84.4704 16.7784 84.8624 17.1982 85.1394 17.7479C85.4207 18.2976 85.5592 18.9645 85.5549 19.7486V26H83.241V20.1065C83.241 19.4503 83.0705 18.9368 82.7296 18.5661C82.393 18.1953 81.9264 18.0099 81.3298 18.0099C80.9249 18.0099 80.5649 18.0994 80.2495 18.2784C79.9384 18.4531 79.6934 18.7067 79.5144 19.0391C79.3397 19.3714 79.2524 19.7741 79.2524 20.2472ZM87.9072 26V16.1818H90.2211V26H87.9072ZM89.0705 14.7884C88.7041 14.7884 88.3887 14.6669 88.1245 14.424C87.8603 14.1768 87.7282 13.8807 87.7282 13.5355C87.7282 13.1861 87.8603 12.8899 88.1245 12.647C88.3887 12.3999 88.7041 12.2763 89.0705 12.2763C89.4413 12.2763 89.7566 12.3999 90.0166 12.647C90.2808 12.8899 90.4129 13.1861 90.4129 13.5355C90.4129 13.8807 90.2808 14.1768 90.0166 14.424C89.7566 14.6669 89.4413 14.7884 89.0705 14.7884ZM97.1677 26V12.9091H102.077C103.082 12.9091 103.926 13.0838 104.608 13.4332C105.294 13.7827 105.812 14.2727 106.161 14.9034C106.515 15.5298 106.692 16.2607 106.692 17.0959C106.692 17.9354 106.513 18.6641 106.155 19.282C105.801 19.8956 105.279 20.3707 104.589 20.7074C103.898 21.0398 103.05 21.206 102.045 21.206H98.5483V19.2372H101.725C102.313 19.2372 102.795 19.1562 103.17 18.9943C103.545 18.8281 103.822 18.5874 104.001 18.272C104.184 17.9524 104.276 17.5604 104.276 17.0959C104.276 16.6314 104.184 16.2351 104.001 15.907C103.818 15.5746 103.538 15.3232 103.163 15.1527C102.788 14.978 102.305 14.8906 101.712 14.8906H99.5391V26H97.1677ZM103.93 20.0682L107.171 26H104.525L101.342 20.0682H103.93ZM112.978 26.1918C111.994 26.1918 111.144 25.9872 110.428 25.5781C109.716 25.1648 109.169 24.581 108.785 23.8267C108.402 23.0682 108.21 22.1754 108.21 21.1484C108.21 20.1385 108.402 19.2521 108.785 18.4893C109.173 17.7223 109.714 17.1257 110.409 16.6996C111.103 16.2692 111.919 16.054 112.857 16.054C113.462 16.054 114.033 16.152 114.57 16.348C115.111 16.5398 115.588 16.8381 116.002 17.2429C116.419 17.6477 116.748 18.1634 116.986 18.7898C117.225 19.4119 117.344 20.1534 117.344 21.0142V21.7237H109.297V20.1641H115.126C115.122 19.7209 115.026 19.3267 114.838 18.9815C114.651 18.6321 114.389 18.3572 114.052 18.157C113.72 17.9567 113.332 17.8565 112.889 17.8565C112.416 17.8565 112 17.9716 111.642 18.2017C111.284 18.4276 111.005 18.7259 110.805 19.0966C110.609 19.4631 110.509 19.8658 110.505 20.3047V21.6662C110.505 22.2372 110.609 22.7273 110.818 23.1364C111.027 23.5412 111.319 23.8523 111.694 24.0696C112.069 24.2827 112.508 24.3892 113.01 24.3892C113.347 24.3892 113.652 24.3423 113.924 24.2486C114.197 24.1506 114.434 24.0078 114.634 23.8203C114.834 23.6328 114.985 23.4006 115.088 23.1236L117.248 23.3665C117.112 23.9375 116.852 24.4361 116.468 24.8622C116.089 25.2841 115.603 25.6122 115.011 25.8466C114.419 26.0767 113.741 26.1918 112.978 26.1918ZM119.302 29.6818V16.1818H121.577V17.8054H121.712C121.831 17.5668 121.999 17.3132 122.216 17.0447C122.434 16.772 122.728 16.5398 123.099 16.348C123.469 16.152 123.942 16.054 124.518 16.054C125.276 16.054 125.96 16.2479 126.569 16.6357C127.183 17.0192 127.669 17.5881 128.027 18.3423C128.389 19.0923 128.57 20.0128 128.57 21.1037C128.57 22.1818 128.393 23.098 128.04 23.8523C127.686 24.6065 127.204 25.1818 126.595 25.5781C125.986 25.9744 125.295 26.1726 124.524 26.1726C123.962 26.1726 123.495 26.0788 123.124 25.8913C122.753 25.7038 122.455 25.478 122.229 25.2138C122.008 24.9453 121.835 24.6918 121.712 24.4531H121.616V29.6818H119.302ZM121.571 21.0909C121.571 21.7259 121.66 22.282 121.839 22.7592C122.023 23.2365 122.285 23.6094 122.626 23.8778C122.971 24.142 123.388 24.2741 123.878 24.2741C124.39 24.2741 124.818 24.1378 125.163 23.8651C125.508 23.5881 125.768 23.2109 125.943 22.7337C126.122 22.2521 126.212 21.7045 126.212 21.0909C126.212 20.4815 126.124 19.9403 125.949 19.4673C125.775 18.9943 125.515 18.6236 125.17 18.3551C124.824 18.0866 124.394 17.9524 123.878 17.9524C123.384 17.9524 122.964 18.0824 122.619 18.3423C122.274 18.6023 122.012 18.9666 121.833 19.4354C121.658 19.9041 121.571 20.456 121.571 21.0909ZM136.81 21.8707V16.1818H139.123V26H136.88V24.255H136.778C136.556 24.8047 136.192 25.2543 135.685 25.6037C135.182 25.9531 134.562 26.1278 133.824 26.1278C133.181 26.1278 132.612 25.9851 132.118 25.6996C131.628 25.4098 131.244 24.9901 130.967 24.4403C130.69 23.8864 130.552 23.2173 130.552 22.4332V16.1818H132.866V22.0753C132.866 22.6974 133.036 23.1918 133.377 23.5582C133.718 23.9247 134.165 24.108 134.719 24.108C135.06 24.108 135.39 24.0249 135.71 23.8587C136.03 23.6925 136.292 23.4453 136.496 23.1172C136.705 22.7848 136.81 22.3693 136.81 21.8707ZM146.406 16.1818V17.9716H140.761V16.1818H146.406ZM142.155 13.8295H144.469V23.0469C144.469 23.358 144.516 23.5966 144.609 23.7628C144.707 23.9247 144.835 24.0355 144.993 24.0952C145.151 24.1548 145.325 24.1847 145.517 24.1847C145.662 24.1847 145.794 24.174 145.913 24.1527C146.037 24.1314 146.131 24.1122 146.195 24.0952L146.585 25.9041C146.461 25.9467 146.284 25.9936 146.054 26.0447C145.828 26.0959 145.551 26.1257 145.223 26.1342C144.644 26.1513 144.121 26.0639 143.657 25.8722C143.193 25.6761 142.824 25.3736 142.551 24.9645C142.283 24.5554 142.151 24.044 142.155 23.4304V13.8295ZM151.166 26.1982C150.544 26.1982 149.984 26.0874 149.485 25.8658C148.991 25.6399 148.599 25.3075 148.309 24.8686C148.023 24.4297 147.881 23.8885 147.881 23.245C147.881 22.6911 147.983 22.233 148.187 21.8707C148.392 21.5085 148.671 21.2188 149.025 21.0014C149.378 20.7841 149.777 20.62 150.22 20.5092C150.667 20.3942 151.13 20.3111 151.607 20.2599C152.182 20.2003 152.649 20.147 153.007 20.1001C153.365 20.049 153.625 19.9723 153.787 19.87C153.953 19.7635 154.036 19.5994 154.036 19.3778V19.3395C154.036 18.858 153.893 18.4851 153.608 18.2209C153.322 17.9567 152.911 17.8246 152.374 17.8246C151.807 17.8246 151.358 17.9482 151.025 18.1953C150.697 18.4425 150.476 18.7344 150.361 19.071L148.2 18.7642C148.371 18.1676 148.652 17.669 149.044 17.2685C149.436 16.8636 149.915 16.5611 150.482 16.3608C151.049 16.1562 151.675 16.054 152.361 16.054C152.834 16.054 153.305 16.1094 153.774 16.2202C154.243 16.331 154.671 16.5142 155.059 16.7699C155.447 17.0213 155.758 17.3643 155.992 17.799C156.231 18.2337 156.35 18.777 156.35 19.429V26H154.126V24.6513H154.049C153.908 24.924 153.71 25.1797 153.454 25.4183C153.203 25.6527 152.886 25.8423 152.502 25.9872C152.123 26.1278 151.677 26.1982 151.166 26.1982ZM151.767 24.4979C152.231 24.4979 152.634 24.4062 152.975 24.223C153.316 24.0355 153.578 23.7884 153.761 23.4815C153.949 23.1747 154.042 22.8402 154.042 22.478V21.321C153.97 21.3807 153.846 21.4361 153.672 21.4872C153.501 21.5384 153.31 21.5831 153.096 21.6214C152.883 21.6598 152.672 21.6939 152.464 21.7237C152.255 21.7536 152.074 21.7791 151.92 21.8004C151.575 21.8473 151.266 21.924 150.993 22.0305C150.721 22.1371 150.506 22.2862 150.348 22.478C150.19 22.6655 150.111 22.9084 150.111 23.2067C150.111 23.6328 150.267 23.9545 150.578 24.1719C150.889 24.3892 151.285 24.4979 151.767 24.4979ZM162.959 26.1918C161.979 26.1918 161.138 25.9766 160.435 25.5462C159.736 25.1158 159.197 24.5213 158.817 23.7628C158.442 23 158.255 22.1222 158.255 21.1293C158.255 20.1321 158.447 19.2521 158.83 18.4893C159.214 17.7223 159.755 17.1257 160.454 16.6996C161.157 16.2692 161.988 16.054 162.947 16.054C163.743 16.054 164.449 16.201 165.062 16.495C165.68 16.7848 166.172 17.196 166.539 17.7287C166.905 18.2571 167.114 18.875 167.165 19.5824H164.954C164.864 19.1094 164.651 18.7152 164.314 18.3999C163.982 18.0803 163.537 17.9205 162.979 17.9205C162.506 17.9205 162.09 18.0483 161.732 18.304C161.374 18.5554 161.095 18.9176 160.895 19.3906C160.699 19.8636 160.601 20.4304 160.601 21.0909C160.601 21.7599 160.699 22.3352 160.895 22.8168C161.091 23.294 161.366 23.6626 161.719 23.9226C162.077 24.1783 162.497 24.3061 162.979 24.3061C163.319 24.3061 163.624 24.2422 163.893 24.1143C164.165 23.9822 164.393 23.7926 164.577 23.5455C164.76 23.2983 164.886 22.9979 164.954 22.6442H167.165C167.11 23.3388 166.905 23.9545 166.552 24.4915C166.198 25.0241 165.716 25.4418 165.107 25.7443C164.498 26.0426 163.782 26.1918 162.959 26.1918ZM169.065 26V16.1818H171.379V26H169.065ZM170.229 14.7884C169.862 14.7884 169.547 14.6669 169.283 14.424C169.019 14.1768 168.886 13.8807 168.886 13.5355C168.886 13.1861 169.019 12.8899 169.283 12.647C169.547 12.3999 169.862 12.2763 170.229 12.2763C170.599 12.2763 170.915 12.3999 171.175 12.647C171.439 12.8899 171.571 13.1861 171.571 13.5355C171.571 13.8807 171.439 14.1768 171.175 14.424C170.915 14.6669 170.599 14.7884 170.229 14.7884ZM178.041 26.1918C177.083 26.1918 176.252 25.9808 175.549 25.5589C174.845 25.1371 174.3 24.5469 173.912 23.7884C173.529 23.0298 173.337 22.1435 173.337 21.1293C173.337 20.1151 173.529 19.2266 173.912 18.4638C174.3 17.701 174.845 17.1087 175.549 16.6868C176.252 16.2649 177.083 16.054 178.041 16.054C179 16.054 179.831 16.2649 180.534 16.6868C181.237 17.1087 181.781 17.701 182.164 18.4638C182.552 19.2266 182.746 20.1151 182.746 21.1293C182.746 22.1435 182.552 23.0298 182.164 23.7884C181.781 24.5469 181.237 25.1371 180.534 25.5589C179.831 25.9808 179 26.1918 178.041 26.1918ZM178.054 24.3381C178.574 24.3381 179.009 24.1953 179.358 23.9098C179.708 23.62 179.968 23.2322 180.138 22.7464C180.313 22.2607 180.4 21.7195 180.4 21.1229C180.4 20.522 180.313 19.9787 180.138 19.4929C179.968 19.0028 179.708 18.6129 179.358 18.3232C179.009 18.0334 178.574 17.8885 178.054 17.8885C177.522 17.8885 177.078 18.0334 176.725 18.3232C176.375 18.6129 176.113 19.0028 175.938 19.4929C175.768 19.9787 175.683 20.522 175.683 21.1229C175.683 21.7195 175.768 22.2607 175.938 22.7464C176.113 23.2322 176.375 23.62 176.725 23.9098C177.078 24.1953 177.522 24.3381 178.054 24.3381ZM187.024 20.2472V26H184.71V16.1818H186.922V17.8501H187.037C187.262 17.3004 187.623 16.8636 188.117 16.5398C188.615 16.2159 189.231 16.054 189.964 16.054C190.642 16.054 191.232 16.1989 191.735 16.4886C192.242 16.7784 192.634 17.1982 192.911 17.7479C193.192 18.2976 193.331 18.9645 193.326 19.7486V26H191.012V20.1065C191.012 19.4503 190.842 18.9368 190.501 18.5661C190.164 18.1953 189.698 18.0099 189.101 18.0099C188.696 18.0099 188.336 18.0994 188.021 18.2784C187.71 18.4531 187.465 18.7067 187.286 19.0391C187.111 19.3714 187.024 19.7741 187.024 20.2472ZM195.679 26V16.1818H197.993V26H195.679ZM196.842 14.7884C196.476 14.7884 196.16 14.6669 195.896 14.424C195.632 14.1768 195.5 13.8807 195.5 13.5355C195.5 13.1861 195.632 12.8899 195.896 12.647C196.16 12.3999 196.476 12.2763 196.842 12.2763C197.213 12.2763 197.528 12.3999 197.788 12.647C198.052 12.8899 198.184 13.1861 198.184 13.5355C198.184 13.8807 198.052 14.1768 197.788 14.424C197.528 14.6669 197.213 14.7884 196.842 14.7884ZM202.686 20.2472V26H200.372V16.1818H202.584V17.8501H202.699C202.925 17.3004 203.285 16.8636 203.779 16.5398C204.278 16.2159 204.893 16.054 205.626 16.054C206.304 16.054 206.894 16.1989 207.397 16.4886C207.904 16.7784 208.296 17.1982 208.573 17.7479C208.854 18.2976 208.993 18.9645 208.989 19.7486V26H206.675V20.1065C206.675 19.4503 206.504 18.9368 206.163 18.5661C205.827 18.1953 205.36 18.0099 204.763 18.0099C204.359 18.0099 203.998 18.0994 203.683 18.2784C203.372 18.4531 203.127 18.7067 202.948 19.0391C202.773 19.3714 202.686 19.7741 202.686 20.2472ZM215.333 14.897V12.9091H225.777V14.897H221.731V26H219.379V14.897H215.333ZM232.61 21.8707V16.1818H234.924V26H232.681V24.255H232.578C232.357 24.8047 231.992 25.2543 231.485 25.6037C230.982 25.9531 230.362 26.1278 229.625 26.1278C228.982 26.1278 228.413 25.9851 227.919 25.6996C227.428 25.4098 227.045 24.9901 226.768 24.4403C226.491 23.8864 226.352 23.2173 226.352 22.4332V16.1818H228.666V22.0753C228.666 22.6974 228.837 23.1918 229.178 23.5582C229.519 23.9247 229.966 24.108 230.52 24.108C230.861 24.108 231.191 24.0249 231.511 23.8587C231.83 23.6925 232.093 23.4453 232.297 23.1172C232.506 22.7848 232.61 22.3693 232.61 21.8707ZM240.129 26.1982C239.507 26.1982 238.946 26.0874 238.448 25.8658C237.954 25.6399 237.561 25.3075 237.272 24.8686C236.986 24.4297 236.843 23.8885 236.843 23.245C236.843 22.6911 236.946 22.233 237.15 21.8707C237.355 21.5085 237.634 21.2188 237.988 21.0014C238.341 20.7841 238.74 20.62 239.183 20.5092C239.63 20.3942 240.093 20.3111 240.57 20.2599C241.145 20.2003 241.612 20.147 241.97 20.1001C242.328 20.049 242.588 19.9723 242.75 19.87C242.916 19.7635 242.999 19.5994 242.999 19.3778V19.3395C242.999 18.858 242.856 18.4851 242.571 18.2209C242.285 17.9567 241.874 17.8246 241.337 17.8246C240.77 17.8246 240.321 17.9482 239.988 18.1953C239.66 18.4425 239.439 18.7344 239.324 19.071L237.163 18.7642C237.333 18.1676 237.615 17.669 238.007 17.2685C238.399 16.8636 238.878 16.5611 239.445 16.3608C240.012 16.1562 240.638 16.054 241.324 16.054C241.797 16.054 242.268 16.1094 242.737 16.2202C243.206 16.331 243.634 16.5142 244.022 16.7699C244.409 17.0213 244.721 17.3643 244.955 17.799C245.194 18.2337 245.313 18.777 245.313 19.429V26H243.088V24.6513H243.012C242.871 24.924 242.673 25.1797 242.417 25.4183C242.166 25.6527 241.848 25.8423 241.465 25.9872C241.086 26.1278 240.64 26.1982 240.129 26.1982ZM240.73 24.4979C241.194 24.4979 241.597 24.4062 241.938 24.223C242.279 24.0355 242.541 23.7884 242.724 23.4815C242.912 23.1747 243.005 22.8402 243.005 22.478V21.321C242.933 21.3807 242.809 21.4361 242.635 21.4872C242.464 21.5384 242.272 21.5831 242.059 21.6214C241.846 21.6598 241.635 21.6939 241.427 21.7237C241.218 21.7536 241.037 21.7791 240.883 21.8004C240.538 21.8473 240.229 21.924 239.956 22.0305C239.684 22.1371 239.468 22.2862 239.311 22.478C239.153 22.6655 239.074 22.9084 239.074 23.2067C239.074 23.6328 239.23 23.9545 239.541 24.1719C239.852 24.3892 240.248 24.4979 240.73 24.4979ZM247.64 16.1818H249.954V26.5625C249.954 27.2699 249.819 27.8537 249.551 28.3139C249.282 28.7741 248.895 29.1172 248.387 29.343C247.88 29.5689 247.265 29.6818 246.54 29.6818C246.455 29.6818 246.376 29.6797 246.304 29.6754C246.231 29.6754 246.152 29.6733 246.067 29.669V27.7834C246.131 27.7876 246.189 27.7898 246.24 27.7898C246.291 27.794 246.344 27.7962 246.4 27.7962C246.843 27.7962 247.16 27.6875 247.352 27.4702C247.544 27.2571 247.64 26.9439 247.64 26.5305V16.1818ZM248.79 14.7884C248.419 14.7884 248.102 14.6669 247.838 14.424C247.578 14.1768 247.448 13.8807 247.448 13.5355C247.448 13.1861 247.578 12.8899 247.838 12.647C248.102 12.3999 248.419 12.2763 248.79 12.2763C249.157 12.2763 249.47 12.3999 249.73 12.647C249.994 12.8899 250.126 13.1861 250.126 13.5355C250.126 13.8807 249.994 14.1768 249.73 14.424C249.47 14.6669 249.157 14.7884 248.79 14.7884Z" fill="#00203F"/>
<defs>
<filter id="filter0_dd_269_1015" x="0.233496" y="0.9" width="36.5" height="36.5" filterUnits="userSpaceOnUse" color-interpolation-filters="sRGB">
<feFlood flood-opacity="0" result="BackgroundImageFix"/>
<feColorMatrix in="SourceAlpha" type="matrix" values="0 0 0 0 0 0 0 0 0 0 0 0 0 0 0 0 0 0 127 0" result="hardAlpha"/>
<feOffset dx="-1" dy="-1"/>
<feGaussianBlur stdDeviation="0.55"/>
<feComposite in2="hardAlpha" operator="out"/>
<feColorMatrix type="matrix" values="0 0 0 0 1 0 0 0 0 1 0 0 0 0 1 0 0 0 1 0"/>
<feBlend mode="normal" in2="BackgroundImageFix" result="effect1_dropShadow_269_1015"/>
<feColorMatrix in="SourceAlpha" type="matrix" values="0 0 0 0 0 0 0 0 0 0 0 0 0 0 0 0 0 0 127 0" result="hardAlpha"/>
<feOffset dx="1" dy="1"/>
<feGaussianBlur stdDeviation="0.7"/>
<feComposite in2="hardAlpha" operator="out"/>
<feColorMatrix type="matrix" values="0 0 0 0 0 0 0 0 0 0 0 0 0 0 0 0 0 0 0.15 0"/>
<feBlend mode="normal" in2="effect1_dropShadow_269_1015" result="effect2_dropShadow_269_1015"/>
<feBlend mode="normal" in="SourceGraphic" in2="effect2_dropShadow_269_1015" result="shape"/>
</filter>
</defs>
</svg>
