<svg width="37" height="38" viewBox="0 0 37 38" fill="none" xmlns="http://www.w3.org/2000/svg">
<g filter="url(#filter0_dd_269_1016)">
<rect x="2.3335" y="3" width="32" height="32" rx="12" fill="#FFC800" shape-rendering="crispEdges"/>
<path d="M14.799 18.2931C15.932 17.1601 17.908 17.1601 19.041 18.2931L19.748 19.0001L21.162 17.5861L20.455 16.8791C19.512 15.9351 18.256 15.4141 16.92 15.4141C15.584 15.4141 14.328 15.9351 13.385 16.8791L11.263 19.0001C9.315 20.9491 9.315 24.1221 11.263 26.0711C12.238 27.0461 13.518 27.5331 14.798 27.5331C16.079 27.5331 17.36 27.0461 18.334 26.0711L19.041 25.3641L17.627 23.9501L16.92 24.6571C15.75 25.8241 13.847 25.8261 12.677 24.6571C11.508 23.4871 11.508 21.5841 12.677 20.4141L14.799 18.2931Z" fill="#00203F"/>
<path d="M18.3331 11.9289L17.6261 12.6359L19.0401 14.0499L19.7471 13.3429C20.9161 12.1759 22.8191 12.1739 23.9901 13.3429C25.1591 14.5129 25.1591 16.4159 23.9901 17.5859L21.8681 19.7069C20.7351 20.8399 18.7591 20.8399 17.6261 19.7069L16.9191 18.9999L15.5051 20.4139L16.2121 21.1209C17.1551 22.0649 18.4111 22.5859 19.7471 22.5859C21.0831 22.5859 22.3391 22.0649 23.2821 21.1209L25.4041 18.9999C27.3521 17.0509 27.3521 13.8779 25.4041 11.9289C23.4541 9.97892 20.2811 9.97992 18.3331 11.9289Z" fill="#00203F"/>
</g>
<defs>
<filter id="filter0_dd_269_1016" x="0.233496" y="0.9" width="36.5" height="36.5" filterUnits="userSpaceOnUse" color-interpolation-filters="sRGB">
<feFlood flood-opacity="0" result="BackgroundImageFix"/>
<feColorMatrix in="SourceAlpha" type="matrix" values="0 0 0 0 0 0 0 0 0 0 0 0 0 0 0 0 0 0 127 0" result="hardAlpha"/>
<feOffset dx="-1" dy="-1"/>
<feGaussianBlur stdDeviation="0.55"/>
<feComposite in2="hardAlpha" operator="out"/>
<feColorMatrix type="matrix" values="0 0 0 0 1 0 0 0 0 1 0 0 0 0 1 0 0 0 1 0"/>
<feBlend mode="normal" in2="BackgroundImageFix" result="effect1_dropShadow_269_1016"/>
<feColorMatrix in="SourceAlpha" type="matrix" values="0 0 0 0 0 0 0 0 0 0 0 0 0 0 0 0 0 0 127 0" result="hardAlpha"/>
<feOffset dx="1" dy="1"/>
<feGaussianBlur stdDeviation="0.7"/>
<feComposite in2="hardAlpha" operator="out"/>
<feColorMatrix type="matrix" values="0 0 0 0 0 0 0 0 0 0 0 0 0 0 0 0 0 0 0.15 0"/>
<feBlend mode="normal" in2="effect1_dropShadow_269_1016" result="effect2_dropShadow_269_1016"/>
<feBlend mode="normal" in="SourceGraphic" in2="effect2_dropShadow_269_1016" result="shape"/>
</filter>
</defs>
</svg>
