<svg width="25" height="24" viewBox="0 0 25 24" fill="none" xmlns="http://www.w3.org/2000/svg">
<path d="M5.89674 7.19729C7.10514 7.19729 8.08474 6.21769 8.08474 5.00929C8.08474 3.80089 7.10514 2.82129 5.89674 2.82129C4.68834 2.82129 3.70874 3.80089 3.70874 5.00929C3.70874 6.21769 4.68834 7.19729 5.89674 7.19729Z" fill="white"/>
<path d="M10.1476 8.85469V20.9937H13.9166V14.9907C13.9166 13.4067 14.2146 11.8727 16.1786 11.8727C18.1156 11.8727 18.1396 13.6837 18.1396 15.0907V20.9947H21.9106V14.3377C21.9106 11.0677 21.2066 8.55469 17.3846 8.55469C15.5496 8.55469 14.3196 9.56169 13.8166 10.5147H13.7656V8.85469H10.1476V8.85469ZM4.00562 8.85469H7.78062V20.9937H4.00562V8.85469Z" fill="white"/>
</svg>
