<svg width="65" height="40" viewBox="0 0 65 40" fill="none" xmlns="http://www.w3.org/2000/svg">
<path d="M0.232666 11.7752V1.19083C0.232666 0.617507 0.673682 0.176492 1.247 0.176492C1.82032 0.176492 2.26133 0.617507 2.26133 1.19083V1.67594C3.05516 0.661608 4.3782 0.0441895 6.00996 0.0441895C7.64171 0.0441895 9.40576 0.838013 10.1996 2.33746C11.1257 0.926216 12.8016 0.0441895 14.742 0.0441895C17.785 0.0441895 19.9019 2.16106 19.9019 5.55687V11.8193C19.9019 12.4367 19.4609 12.9218 18.8435 12.9218C18.226 12.9218 17.7409 12.4367 17.7409 11.8193V5.73327C17.7409 3.44 16.462 2.07285 14.4774 2.07285C12.4929 2.07285 11.1698 3.5282 11.1698 5.73327V11.8193C11.1698 12.4367 10.7288 12.9218 10.1114 12.9218C9.49397 12.9218 9.00885 12.4367 9.00885 11.8193V5.73327C9.00885 3.44 7.72991 2.07285 5.74534 2.07285C3.76078 2.07285 2.39364 3.5282 2.39364 5.73327V11.8193C2.39364 12.4367 1.95262 12.9218 1.3352 12.9218C0.717782 12.9218 0.232666 12.4367 0.232666 11.8193V11.7752Z" fill="white"/>
<path d="M25.3261 16.7145C25.3261 16.5822 25.3261 16.4499 25.4143 16.3176L26.8697 12.7454L22.3272 1.67596C22.2831 1.54366 22.239 1.41135 22.239 1.23495C22.239 0.66163 22.68 0.176514 23.3415 0.176514C24.0031 0.176514 24.1354 0.441121 24.3118 0.882135L28.0604 10.1434L31.7208 0.838035C31.8972 0.397021 32.2941 0.176514 32.6911 0.176514C33.3526 0.176514 33.7936 0.66163 33.7936 1.23495C33.7936 1.80827 33.7936 1.54366 33.7054 1.67596L27.3548 17.1997C27.2225 17.5966 26.8256 17.8612 26.3845 17.8612C25.9435 17.8612 25.3261 17.3761 25.3261 16.8027V16.7145Z" fill="white"/>
<path d="M0.188477 29.8568V20.0222C0.188477 18.6109 1.24691 17.5525 2.65816 17.5525C4.0694 17.5525 5.12784 18.6109 5.12784 20.0222V29.5922C5.12784 33.1203 7.0683 35.2372 10.1113 35.2372C13.1543 35.2372 14.9625 33.1644 14.9625 29.5922V20.0222C14.9625 18.6109 16.0209 17.5525 17.4762 17.5525C18.9316 17.5525 19.9459 18.6109 19.9459 20.0222V29.8568C19.9459 35.9869 15.9768 39.956 10.1113 39.956C4.24581 39.956 0.232577 35.9869 0.232577 29.8568H0.188477Z" fill="white"/>
<path d="M22.4594 37.7068C21.9742 37.1335 21.6655 36.6042 21.6655 35.8104C21.6655 35.0166 22.5476 34.0905 23.5178 34.0905C24.488 34.0905 24.7085 34.3992 25.2377 34.9284C25.9875 35.6781 27.1782 36.2514 28.7659 36.2514C30.3535 36.2514 30.8827 35.8104 30.8827 34.9284C30.8827 34.0463 30.2653 33.7817 28.5453 33.473L26.8695 33.2084C23.2532 32.5028 22.0183 30.9593 22.0183 28.4896C22.0183 26.0199 24.7526 23.5061 28.5453 23.5061C32.3381 23.5061 33.176 24.3881 34.3226 25.6671C34.7637 26.1963 35.0724 26.7696 35.0724 27.5634C35.0724 28.3573 34.3667 29.2834 33.3524 29.2834C32.3381 29.2834 32.0735 28.9747 31.5442 28.4455C30.7063 27.6516 29.8243 27.1665 28.4571 27.1665C27.09 27.1665 26.3844 27.6075 26.3844 28.4455C26.3844 29.2834 27.0459 29.6362 28.7659 29.9449L30.3976 30.2536C34.0139 30.9593 35.2488 32.5469 35.2488 34.9725C35.2488 37.3981 32.3822 39.9559 28.1925 39.9559C24.0029 39.9559 23.5178 38.9857 22.4153 37.7509L22.4594 37.7068Z" fill="white"/>
<path d="M43.2313 39.8237C40.1883 39.8237 38.5125 37.8833 38.5125 35.2372V28.0486H37.9832C36.7043 28.0486 35.8223 27.1225 35.8223 25.9318C35.8223 24.741 36.7484 23.8149 37.7627 23.8149H38.0714C38.4684 23.8149 38.733 23.5503 38.733 23.0652V22.0949C38.733 20.7278 39.7032 19.7576 41.0262 19.7576C42.3493 19.7576 43.2754 20.7278 43.2754 22.0949V23.8149H45.3482C46.5389 23.8149 47.465 24.6969 47.465 25.9318C47.465 27.1666 46.5389 28.0486 45.3482 28.0486H43.2754V33.7377C43.2754 34.8403 43.6723 35.1931 44.7308 35.1931H45.3482C46.5389 35.1931 47.4209 36.1192 47.4209 37.3099C47.4209 38.5007 46.3184 39.8237 44.5103 39.8237H43.2754H43.2313Z" fill="white"/>
<path d="M47.7737 31.709C47.7737 27.0783 51.1695 23.5061 55.5796 23.5061C59.9898 23.5061 59.1078 24.1235 60.1221 25.2702C60.3867 24.2117 61.2687 23.5502 62.3272 23.5502C63.3856 23.5502 64.5763 24.5645 64.5763 25.9758V37.5304C64.5763 38.8975 63.6061 39.9118 62.3272 39.9118C61.0482 39.9118 60.3867 39.2062 60.1221 38.1919C59.0637 39.3826 57.476 40 55.5796 40C51.1695 40 47.7737 36.4278 47.7737 31.7972V31.709ZM59.9016 31.709C59.9016 29.548 58.358 27.9604 56.2412 27.9604C54.1243 27.9604 52.4925 29.548 52.4925 31.709C52.4925 33.8699 54.0802 35.4576 56.2412 35.4576C58.4021 35.4576 59.9016 33.914 59.9016 31.709Z" fill="white"/>
</svg>
