<svg width="366" height="466" viewBox="0 0 366 466" fill="none" xmlns="http://www.w3.org/2000/svg">
<path d="M98.2424 30.4224L103.303 29.909C112.56 28.9659 119.819 28.2014 120.325 28.1047C121.8 27.8204 122.836 27.3085 123.772 26.427C125.984 24.3226 126.254 20.9813 124.481 17.4266C122.81 14.1046 119.443 11.3122 115.839 10.2633L115.476 10.1601C113.517 9.60919 112.883 9.68836 90.5126 11.9952L86.6846 12.3929C76.5799 13.447 68.4792 14.3253 67.9617 14.4265C65.7349 14.8673 63.9621 16.2323 63.2671 18.0096C62.5721 19.8154 62.7849 22.4884 63.7777 24.5643C66.0753 29.3844 70.9401 32.5836 75.8758 32.5409C76.6275 32.5409 86.6974 31.5741 98.2424 30.4224ZM163.517 0.308399C170.112 1.34635 176.182 4.04787 181.43 8.25655C186.499 12.3246 190.678 17.8002 194.449 25.304L194.717 25.8384C196.054 28.4835 195.378 26.9116 220.823 84.6664L256.014 164.545C264.522 183.853 274.897 207.395 285.562 231.587L334.84 343.415C335.514 344.946 336.05 346.164 336.436 347.041L352.072 382.535C359.773 400.026 360.556 401.855 361.231 403.599L361.625 404.626C363.27 408.906 364.32 412.517 364.873 415.816C365.185 417.707 365.227 422.755 364.944 424.319C363.837 430.319 360.519 434.84 355.172 437.584C351.956 439.231 348.477 440.251 341.582 441.541L341.372 441.58C337.188 442.376 219.143 463.533 216.49 463.974L215.887 464.073C211.164 464.845 208.838 465.055 205.257 465.071H204.965C202.226 465.071 200.652 464.925 198.336 464.486C187.415 462.382 178.012 455.102 171.473 443.656L171.259 443.279C168.966 439.231 167.315 435.519 159.9 417.92L111.45 302.909L101.918 280.283L63.1742 188.306L50.2068 157.509C48.6088 153.717 47.3302 150.685 46.5779 148.906L28.0488 104.92L19.8651 85.4864C13.5384 70.4677 8.50112 58.5218 7.61724 56.4146L7.2887 55.6327C2.00459 43.034 0.718341 38.8155 0.426455 33.4091C0.171161 28.8165 1.03632 25.2192 3.17796 21.9348C4.46861 19.9442 7.39031 17.4417 9.84397 16.2047C12.8791 14.6833 17.4461 13.5601 23.4596 12.8491C26.353 12.4937 147.447 0.507458 150.539 0.251525L150.908 0.224875C151.379 0.189692 151.84 0.151019 152.213 0.118544L152.95 0.0524655C153.243 0.0223955 155.163 0.0115298 157.327 0.0333009L158.574 0.0469906C161.155 0.0802689 162.536 0.153113 163.517 0.308399Z" fill="black"/>
</svg>
