<svg width="118" height="40" viewBox="0 0 118 40" fill="none" xmlns="http://www.w3.org/2000/svg">
<path d="M47.2327 11.7752V1.19083C47.2327 0.617507 47.6737 0.176492 48.247 0.176492C48.8203 0.176492 49.2613 0.617507 49.2613 1.19083V1.67594C50.0552 0.661608 51.3782 0.0441895 53.01 0.0441895C54.6417 0.0441895 56.4058 0.838013 57.1996 2.33746C58.1257 0.926216 59.8016 0.0441895 61.742 0.0441895C64.785 0.0441895 66.9019 2.16106 66.9019 5.55687V11.8193C66.9019 12.4367 66.4609 12.9218 65.8435 12.9218C65.226 12.9218 64.7409 12.4367 64.7409 11.8193V5.73327C64.7409 3.44 63.462 2.07285 61.4774 2.07285C59.4929 2.07285 58.1698 3.5282 58.1698 5.73327V11.8193C58.1698 12.4367 57.7288 12.9218 57.1114 12.9218C56.494 12.9218 56.0089 12.4367 56.0089 11.8193V5.73327C56.0089 3.44 54.7299 2.07285 52.7453 2.07285C50.7608 2.07285 49.3936 3.5282 49.3936 5.73327V11.8193C49.3936 12.4367 48.9526 12.9218 48.3352 12.9218C47.7178 12.9218 47.2327 12.4367 47.2327 11.8193V11.7752Z" fill="white"/>
<path d="M72.3261 16.7145C72.3261 16.5822 72.3261 16.4499 72.4143 16.3176L73.8697 12.7454L69.3272 1.67596C69.2831 1.54366 69.239 1.41135 69.239 1.23495C69.239 0.66163 69.68 0.176514 70.3415 0.176514C71.0031 0.176514 71.1354 0.441121 71.3118 0.882135L75.0604 10.1434L78.7208 0.838035C78.8972 0.397021 79.2941 0.176514 79.6911 0.176514C80.3526 0.176514 80.7936 0.66163 80.7936 1.23495C80.7936 1.80827 80.7936 1.54366 80.7054 1.67596L74.3548 17.1997C74.2225 17.5966 73.8256 17.8612 73.3845 17.8612C72.9435 17.8612 72.3261 17.3761 72.3261 16.8027V16.7145Z" fill="white"/>
<path d="M47.1885 29.8568V20.0222C47.1885 18.6109 48.2469 17.5525 49.6582 17.5525C51.0694 17.5525 52.1278 18.6109 52.1278 20.0222V29.5922C52.1278 33.1203 54.0683 35.2372 57.1113 35.2372C60.1543 35.2372 61.9625 33.1644 61.9625 29.5922V20.0222C61.9625 18.6109 63.0209 17.5525 64.4762 17.5525C65.9316 17.5525 66.9459 18.6109 66.9459 20.0222V29.8568C66.9459 35.9869 62.9768 39.956 57.1113 39.956C51.2458 39.956 47.2326 35.9869 47.2326 29.8568H47.1885Z" fill="white"/>
<path d="M69.4594 37.7068C68.9742 37.1335 68.6655 36.6042 68.6655 35.8104C68.6655 35.0166 69.5476 34.0905 70.5178 34.0905C71.488 34.0905 71.7085 34.3992 72.2377 34.9284C72.9875 35.6781 74.1782 36.2514 75.7659 36.2514C77.3535 36.2514 77.8827 35.8104 77.8827 34.9284C77.8827 34.0463 77.2653 33.7817 75.5453 33.473L73.8695 33.2084C70.2532 32.5028 69.0183 30.9593 69.0183 28.4896C69.0183 26.0199 71.7526 23.5061 75.5453 23.5061C79.3381 23.5061 80.176 24.3881 81.3226 25.6671C81.7637 26.1963 82.0724 26.7696 82.0724 27.5634C82.0724 28.3573 81.3667 29.2834 80.3524 29.2834C79.3381 29.2834 79.0735 28.9747 78.5442 28.4455C77.7063 27.6516 76.8243 27.1665 75.4571 27.1665C74.09 27.1665 73.3844 27.6075 73.3844 28.4455C73.3844 29.2834 74.0459 29.6362 75.7659 29.9449L77.3976 30.2536C81.0139 30.9593 82.2488 32.5469 82.2488 34.9725C82.2488 37.3981 79.3822 39.9559 75.1925 39.9559C71.0029 39.9559 70.5178 38.9857 69.4153 37.7509L69.4594 37.7068Z" fill="white"/>
<path d="M90.2313 39.8237C87.1883 39.8237 85.5125 37.8833 85.5125 35.2372V28.0486H84.9832C83.7043 28.0486 82.8223 27.1225 82.8223 25.9318C82.8223 24.741 83.7484 23.8149 84.7627 23.8149H85.0714C85.4684 23.8149 85.733 23.5503 85.733 23.0652V22.0949C85.733 20.7278 86.7032 19.7576 88.0262 19.7576C89.3493 19.7576 90.2754 20.7278 90.2754 22.0949V23.8149H92.3482C93.5389 23.8149 94.465 24.6969 94.465 25.9318C94.465 27.1666 93.5389 28.0486 92.3482 28.0486H90.2754V33.7377C90.2754 34.8403 90.6723 35.1931 91.7308 35.1931H92.3482C93.5389 35.1931 94.4209 36.1192 94.4209 37.3099C94.4209 38.5007 93.3184 39.8237 91.5103 39.8237H90.2754H90.2313Z" fill="white"/>
<path d="M94.7737 31.709C94.7737 27.0783 98.1695 23.5061 102.58 23.5061C106.99 23.5061 106.108 24.1235 107.122 25.2702C107.387 24.2117 108.269 23.5502 109.327 23.5502C110.386 23.5502 111.576 24.5645 111.576 25.9758V37.5304C111.576 38.8975 110.606 39.9118 109.327 39.9118C108.048 39.9118 107.387 39.2062 107.122 38.1919C106.064 39.3826 104.476 40 102.58 40C98.1695 40 94.7737 36.4278 94.7737 31.7972V31.709ZM106.902 31.709C106.902 29.548 105.358 27.9604 103.241 27.9604C101.124 27.9604 99.4925 29.548 99.4925 31.709C99.4925 33.8699 101.08 35.4576 103.241 35.4576C105.402 35.4576 106.902 33.914 106.902 31.709Z" fill="white"/>
<path d="M39.9118 18.6108L22.8445 0.92613C21.6097 -0.30871 19.6251 -0.30871 18.4344 0.92613L0.92613 18.6108C0.352811 19.1841 0 19.9779 0 20.8159V36.8247C0 36.9129 0 37.0011 0 37.0452C0 37.1334 0 37.2216 0 37.2657C0 37.3539 0 37.398 0 37.4862C0 37.5303 0 37.6185 0 37.6626C0 37.6626 0 37.6626 0 37.7067C0 37.7067 0 37.7067 0 37.7508C0 37.7949 -2.53008e-07 37.839 0.0441012 37.8831C0.0441012 37.8831 0.0441012 37.9272 0.0441012 37.9713C0.0441012 38.0595 0.132304 38.1477 0.176406 38.2359C0.176406 38.2359 0.176406 38.2801 0.176406 38.3242C0.176406 38.3683 0.264609 38.4565 0.30871 38.5006C0.352811 38.5888 0.396913 38.6329 0.441014 38.677C0.441014 38.7211 0.529217 38.7652 0.573318 38.8534C0.61742 38.8975 0.661522 38.9416 0.749724 39.0298C0.837927 39.118 0.92613 39.2062 1.05843 39.2944C1.19074 39.3826 1.32304 39.4708 1.45535 39.5149C1.45535 39.5149 1.49945 39.5149 1.54355 39.559C1.54355 39.559 1.63175 39.559 1.67585 39.6031C2.02867 39.7795 2.46968 39.8677 2.9107 39.8677H30.5623L25.0055 34.3109C24.785 34.0904 24.785 33.7376 25.0055 33.473L16.4057 24.0794L19.4487 20.9923L28.8423 29.6362C29.107 29.4598 29.4157 29.4598 29.6362 29.7244L39.4267 39.5149C39.6031 39.4267 39.7795 39.2944 39.9118 39.1621C39.9559 39.118 40.0441 39.0739 40.0882 39.0298C40.1323 38.9857 40.1764 38.9416 40.2646 38.8534C40.2646 38.8093 40.3528 38.7652 40.3969 38.677C40.441 38.6329 40.4851 38.5447 40.5292 38.5006C40.5292 38.4565 40.6174 38.3683 40.6615 38.3242C40.6615 38.3242 40.6615 38.28 40.6615 38.2359C40.7056 38.1477 40.7497 38.0595 40.7938 37.9713C40.7938 37.9713 40.7938 37.9272 40.7938 37.8831C40.7938 37.839 40.7938 37.7949 40.8379 37.7508C40.8379 37.7508 40.8379 37.7508 40.8379 37.7067C40.8379 37.7067 40.8379 37.7067 40.8379 37.6626C40.8379 37.6185 40.8379 37.5303 40.8379 37.4862C40.8379 37.398 40.8379 37.3539 40.8379 37.2657C40.8379 37.1775 40.8379 37.0893 40.8379 37.0452C40.8379 36.957 40.8379 36.8688 40.8379 36.8247V20.8159C40.8379 19.9779 40.5292 19.2282 39.9118 18.6108ZM25.1378 12.9217L22.9769 15.0827C22.8004 15.2591 22.5799 15.3032 22.3594 15.3032L20.1985 15.0827L19.5369 15.7442L20.3308 16.538C20.6395 16.8467 20.6395 17.3319 20.3308 17.6406L10.2756 27.6957C10.0551 27.9162 9.96692 28.3131 10.1433 28.5777L11.29 30.8269C11.4223 31.1356 11.3782 31.4884 11.1577 31.7089L10.2756 32.591C9.96693 32.8997 9.48181 32.8997 9.1731 32.591L6.39471 29.8126C6.2183 29.6362 6.1301 29.4157 6.1742 29.1951V22.0066C6.1742 21.8302 6.2624 21.6979 6.39471 21.5656L15.3032 12.6571C15.6119 12.3484 16.097 12.3484 16.4057 12.6571L17.1996 13.4509L17.8611 12.8335L17.6847 10.6725C17.6847 10.452 17.7729 10.2315 17.9052 10.0551L20.0662 7.89416C20.3749 7.62955 20.86 7.62955 21.1246 7.89416L25.0496 11.8192C25.3583 12.1279 25.3583 12.613 25.0496 12.9217H25.1378Z" fill="#FFC800"/>
<path d="M111.886 23.5502V21.7862H111.356C111.092 21.7862 110.959 21.6098 110.959 21.3893C110.959 21.1687 111.136 20.9923 111.356 20.9923H113.341C113.561 20.9923 113.738 21.1687 113.738 21.3893C113.738 21.6098 113.561 21.7862 113.341 21.7862H112.812V23.5502C112.812 23.7707 112.591 23.9912 112.371 23.9912C112.15 23.9912 111.93 23.8148 111.93 23.5502H111.886ZM114.091 23.5502V21.698C114.091 21.1687 114.399 20.9482 114.752 20.9482C115.105 20.9482 115.326 21.1246 115.546 21.5216L116.031 22.4036L116.516 21.5216C116.737 21.1246 116.957 20.9482 117.31 20.9482C117.663 20.9482 117.927 21.1687 117.927 21.698V23.5502C117.927 23.7707 117.707 23.9912 117.486 23.9912C117.266 23.9912 117.045 23.7707 117.045 23.5502V22.139L116.604 22.9328C116.428 23.2856 116.252 23.4179 115.987 23.4179C115.722 23.4179 115.546 23.2415 115.37 22.9328L114.973 22.139V23.5943C114.973 23.8148 114.752 24.0353 114.532 24.0353C114.311 24.0353 114.091 23.8589 114.091 23.5943V23.5502Z" fill="white"/>
</svg>
