<svg width="28" height="30" viewBox="0 0 28 30" fill="none" xmlns="http://www.w3.org/2000/svg">
<path fill-rule="evenodd" clip-rule="evenodd" d="M6.5 8.15112C6.5 4.01562 9.8645 0.651123 14 0.651123C18.1355 0.651123 21.5 4.01562 21.5 8.15112C21.5 12.2866 18.1355 15.6511 14 15.6511C9.8645 15.6511 6.5 12.2866 6.5 8.15112ZM14 12.6511C11.5147 12.6511 9.5 10.6364 9.5 8.15112C9.5 5.66584 11.5147 3.65112 14 3.65112C16.4853 3.65112 18.5 5.66584 18.5 8.15112C18.5 10.6364 16.4853 12.6511 14 12.6511Z" fill="#00203F"/>
<path d="M27.5 27.6511V29.1511H24.5V27.6511C24.5 23.5156 21.1355 20.1511 17 20.1511H11C6.8645 20.1511 3.5 23.5156 3.5 27.6511V29.1511H0.5V27.6511C0.5 21.8626 5.21 17.1511 11 17.1511H17C22.7885 17.1511 27.5 21.8626 27.5 27.6511Z" fill="#00203F"/>
</svg>
