<svg width="124" height="24" viewBox="0 0 124 24" fill="none" xmlns="http://www.w3.org/2000/svg">
<path d="M21.9119 3H5.91187C5.35887 3 4.91187 3.448 4.91187 4V20C4.91187 20.552 5.35887 21 5.91187 21H14.5269V14.04H12.1889V11.315H14.5269V9.315C14.5269 6.99 15.9469 5.723 18.0269 5.723C18.7259 5.721 19.4259 5.757 20.1219 5.83V8.25H18.6869C17.5589 8.25 17.3389 8.788 17.3389 9.575V11.31H20.0359L19.6859 14.035H17.3379V21H21.9119C22.4649 21 22.9119 20.552 22.9119 20V4C22.9119 3.448 22.4649 3 21.9119 3Z" fill="white"/>
<path d="M54.8967 7.19729C56.1051 7.19729 57.0847 6.21769 57.0847 5.00929C57.0847 3.80089 56.1051 2.82129 54.8967 2.82129C53.6883 2.82129 52.7087 3.80089 52.7087 5.00929C52.7087 6.21769 53.6883 7.19729 54.8967 7.19729Z" fill="white"/>
<path d="M59.1476 8.85469V20.9937H62.9166V14.9907C62.9166 13.4067 63.2146 11.8727 65.1786 11.8727C67.1156 11.8727 67.1396 13.6837 67.1396 15.0907V20.9947H70.9106V14.3377C70.9106 11.0677 70.2066 8.55469 66.3846 8.55469C64.5496 8.55469 63.3196 9.56169 62.8166 10.5147H62.7656V8.85469H59.1476V8.85469ZM53.0056 8.85469H56.7806V20.9937H53.0056V8.85469Z" fill="white"/>
<path d="M119.847 7.90309C119.835 7.06376 119.68 6.23107 119.382 5.44606C118.861 4.10556 117.801 3.04557 116.458 2.52667C115.682 2.23506 114.861 2.07872 114.03 2.06098C112.962 2.01331 112.623 2 109.911 2C107.199 2 106.851 2 105.79 2.06098C104.961 2.07872 104.14 2.23506 103.364 2.52667C102.021 3.04557 100.959 4.10556 100.439 5.44606C100.147 6.22109 99.9896 7.04047 99.9741 7.86872C99.9263 8.93647 99.9119 9.27464 99.9119 11.9823C99.9119 14.6899 99.9119 15.0358 99.9741 16.0958C99.9907 16.9252 100.147 17.7434 100.439 18.5207C100.96 19.8601 102.021 20.9201 103.365 21.439C104.138 21.7406 104.959 21.9113 105.791 21.9379C106.861 21.9856 107.2 22 109.912 22C112.624 22 112.972 22 114.032 21.9379C114.862 21.9213 115.683 21.7649 116.46 21.4733C117.803 20.9533 118.863 19.8933 119.384 18.5539C119.676 17.7778 119.833 16.9595 119.85 16.1291C119.897 15.0624 119.912 14.7243 119.912 12.0155C119.91 9.30791 119.91 8.96419 119.847 7.90309ZM109.904 17.1026C107.068 17.1026 104.77 14.8085 104.77 11.9767C104.77 9.14492 107.068 6.85087 109.904 6.85087C112.738 6.85087 115.038 9.14492 115.038 11.9767C115.038 14.8085 112.738 17.1026 109.904 17.1026ZM115.243 7.85653C114.58 7.85653 114.046 7.3221 114.046 6.66127C114.046 6.00044 114.58 5.46602 115.243 5.46602C115.904 5.46602 116.439 6.00044 116.439 6.66127C116.439 7.3221 115.904 7.85653 115.243 7.85653Z" fill="white"/>
<path d="M109.907 14.9826C111.566 14.9826 112.91 13.6381 112.91 11.9796C112.91 10.3211 111.566 8.97656 109.907 8.97656C108.249 8.97656 106.904 10.3211 106.904 11.9796C106.904 13.6381 108.249 14.9826 109.907 14.9826Z" fill="white"/>
</svg>
