<svg width="20" height="20" viewBox="0 0 20 20" fill="none" xmlns="http://www.w3.org/2000/svg">
<path d="M3.25471 18.4728C3.61346 18.8316 4.0899 19.029 4.5967 19.029C5.10351 19.029 5.57995 18.8316 5.9387 18.4728L10.0539 14.3576C10.7335 14.5674 11.4386 14.6737 12.158 14.6737C14.059 14.6737 15.8471 13.9343 17.19 12.5904C19.2268 10.5528 19.8351 7.5138 18.7389 4.84783L18.198 3.53051L14.1701 7.55746L12.1571 5.54351L16.184 1.51656L14.8657 0.97464C14.0021 0.619684 13.09 0.440308 12.1542 0.440308C10.2532 0.440308 8.4661 1.18059 7.12315 2.52449C5.23923 4.40746 4.57772 7.1484 5.35597 9.65967L1.24076 13.7749C0.500476 14.5142 0.500476 15.7195 1.24076 16.4589L3.25471 18.4728ZM7.57112 10.1295L7.33005 9.54483C6.52524 7.58878 6.9713 5.35939 8.46515 3.86649C9.4503 2.88134 10.76 2.33847 12.1542 2.33847C12.3222 2.33847 12.4883 2.34606 12.6534 2.36219L9.47118 5.54446L14.1682 10.2424L17.3523 7.05824C17.5004 8.58436 16.9699 10.1247 15.8461 11.2494C14.3751 12.7205 12.084 13.1732 10.1669 12.3845L9.58317 12.1425L4.5967 17.1308H4.59765L4.5967 18.0799V17.1308L2.58276 15.1169L7.57112 10.1295Z" fill="#00203F"/>
</svg>
